<svg xmlns="http://www.w3.org/2000/svg" width="75" height="81" stroke="none" stroke-linecap="round" stroke-linejoin="round" fill="#fff" fill-rule="evenodd"><path d="M74.4281 0H0l6.2026 71.3258 31.0111 9.304 31.012-9.304L74.4281 0" fill="#1572b6"/><path d="M64.1805 46.5171l.5392-6.2025.8087-9.3031.8097-9.3037.8084-9.3029.5392-6.2026H37.2138V74.428l18.8286-5.6486 6.3688-1.9114.8308-9.5524.8292-9.5518z" fill="#33a9dc"/><path d="M30.9283 63.2391l-3.1838-.9556-10.1892-3.0568-.8307-9.5533-.2749-3.1561h9.9237l.5401 6.2139 3.1841.9546 7.1162 2.1343v9.304zM14.2919 21.7074h9.9237 3.102 9.896v-9.3028H26.5083 23.407h-9.9237z" fill="#ebebeb"/><path d="M37.2138 55.8208l10.3002-3.09.5409-6.2139.5385-6.2016H37.2138v-9.3039H49.403l.8085-9.304H37.2138v-9.3028h13.8074 9.9229l-.8087 9.3028-.8087 9.304-.8096 9.3039-.5392 6.2016-.2749 3.1571-.83 9.5523-10.1897 3.0575-9.4695 2.8409v-9.3039z"/><path d="M37.2134 40.3143h-8.2785l-.8087-9.3028h9.0872z" fill="#ebebeb"/></svg>