<svg xmlns="http://www.w3.org/2000/svg" width="76" height="82" stroke="none" stroke-linecap="round" stroke-linejoin="round" fill="#fff" fill-rule="evenodd"><path d="M75.5904 0H0l6.2994 72.4408 31.496 9.449 31.4961-9.449L75.5904 0" fill="#e44d26"/><path d="M28.1779 63.2564l-10.349-3.1045-.8438-9.702-.2785-3.2058h10.0786l.5489 6.3103 10.461 3.1384v9.449zm9.6175-41.2093H24.5942l.8218 9.449h12.3794v9.4487H26.2377h-10.079l-.8213-9.4487-.8218-9.449-.8216-9.4487h10.0786 14.0228z" fill="#ebebeb"/><path d="M65.1832 47.2439l.5478-6.299.8217-9.449.8214-9.4487.8216-9.4486.5478-6.2994H37.7953v69.2915l19.1225-5.7371 6.4679-1.9402.8437-9.7019.8438-9.702z" fill="#f16529"/><path d="M37.7953 22.0471h13.2008 10.079l.8216-9.4487h-10.079-14.0224zM49.353 40.9448H37.7953v-9.4487h12.3795 10.0786l-.8218 9.4487-.5478 6.2993-.2785 3.2059-.8438 9.7019-10.3486 3.1045-9.6176 2.8854v-9.449l10.4614-3.1383.5485-6.3104z"/></svg>