<svg id="Layer_1" data-name="Layer 1" xmlns="http://www.w3.org/2000/svg" xmlns:xlink="http://www.w3.org/1999/xlink" viewBox="0 0 93.44 89.4"><defs><style>.cls-1{fill:url(#linear-gradient);}.cls-2{fill:url(#linear-gradient-2);}.cls-3{fill:url(#linear-gradient-3);}.cls-4{fill:url(#linear-gradient-4);}</style><linearGradient id="linear-gradient" x1="28.05" y1="69.42" x2="28.05" y2="18.53" gradientTransform="translate(19.28 100.91) rotate(-135)" gradientUnits="userSpaceOnUse"><stop offset="0" stop-color="#11ccbe"/><stop offset="1" stop-color="#0e7bcc"/></linearGradient><linearGradient id="linear-gradient-2" x1="16.06" y1="49.68" x2="56.17" y2="11.61" gradientUnits="userSpaceOnUse"><stop offset="0" stop-color="#0e7fcb"/><stop offset="1" stop-color="#11c9bf"/></linearGradient><linearGradient id="linear-gradient-3" x1="-267.4" y1="90.98" x2="-267.4" y2="40.08" gradientTransform="matrix(-0.71, 0.71, 0.71, 0.71, -167.3, 207.25)" gradientUnits="userSpaceOnUse"><stop offset="0" stop-color="#cc1515"/><stop offset="1" stop-color="#ccb619"/></linearGradient><linearGradient id="linear-gradient-4" x1="-279.39" y1="71.23" x2="-239.28" y2="33.16" gradientTransform="matrix(-1, 0, 0, 1, -196.8, 0)" xlink:href="#linear-gradient-3"/></defs><path class="cls-1" d="M30.54,19h0a12,12,0,0,1,12,12V74a0,0,0,0,1,0,0h-24a0,0,0,0,1,0,0V31A12,12,0,0,1,30.54,19Z" transform="translate(82.38 56.14) rotate(135)"/><path class="cls-2" d="M50,5.09h0a12,12,0,0,1,0,17C34,38,26.42,40.53,31,64,16,49,16,49,2.61,35.5L33,5.09A12,12,0,0,1,50,5.09Z" transform="translate(-2.61 -1.58)"/><path class="cls-3" d="M56.11,40.52h24a0,0,0,0,1,0,0v43a12,12,0,0,1-12,12h0a12,12,0,0,1-12-12v-43a0,0,0,0,1,0,0Z" transform="translate(65.44 -29.82) rotate(45)"/><path class="cls-4" d="M48.67,26.65h0a12,12,0,0,0,0,17c16,15.93,23.56,18.46,19,41.93,15-15,15-15,28.4-28.5L65.64,26.65A12,12,0,0,0,48.67,26.65Z" transform="translate(-2.61 -1.58)"/></svg>